<?xml version="1.0" encoding="UTF-8" standalone="no"?>
<svg
   id="Layer_1"
   data-name="Layer 1"
   viewBox="0 0 192 192"
   version="1.1"
   sodipodi:docname="192.svg"
   width="192"
   height="192"
   inkscape:version="1.2.1 (9c6d41e410, 2022-07-14)"
   xmlns:inkscape="http://www.inkscape.org/namespaces/inkscape"
   xmlns:sodipodi="http://sodipodi.sourceforge.net/DTD/sodipodi-0.dtd"
   xmlns="http://www.w3.org/2000/svg"
   xmlns:svg="http://www.w3.org/2000/svg">
  <defs
     id="defs7" />
  <sodipodi:namedview
     id="namedview5"
     pagecolor="#ffffff"
     bordercolor="#000000"
     borderopacity="0.25"
     inkscape:showpageshadow="2"
     inkscape:pageopacity="0.0"
     inkscape:pagecheckerboard="0"
     inkscape:deskcolor="#d1d1d1"
     showgrid="false"
     inkscape:zoom="1.8078179"
     inkscape:cx="256.93959"
     inkscape:cy="151.56394"
     inkscape:window-width="1920"
     inkscape:window-height="1017"
     inkscape:window-x="-8"
     inkscape:window-y="-8"
     inkscape:window-maximized="1"
     inkscape:current-layer="Layer_1" />
  <path
     d="m 80.532906,120.44479 v 15.69055 c 0,4.33843 -3.533533,7.84527 -7.887348,7.84527 -4.353817,0 -7.887347,-3.50684 -7.887347,-7.84527 v -15.69055 c 0,-4.33843 3.53353,-7.84526 7.887347,-7.84526 4.353815,0 7.887348,3.50683 7.887348,7.84526 z M 184.03852,49.790303 c -4.25128,0.470721 -8.22651,-2.636009 -8.69973,-6.943058 -1.50649,-13.682151 -13.70032,-24.390943 -27.76346,-24.390943 -15.22257,0 -27.6057,12.317073 -27.6057,27.458441 v 22.892499 c 13.91326,6.064393 23.66204,19.8956 23.66204,35.947028 v 47.0716 c 0,21.62941 -17.69132,39.22636 -39.43674,39.22636 H 41.096176 c -21.745403,0 -39.4367207,-17.59695 -39.4367207,-39.22636 v -47.0716 c 0,-21.629413 17.6913177,-39.226352 39.4367207,-39.226352 H 104.19493 V 45.914743 c 0,-23.786855 19.45808,-43.1489798 43.3804,-43.1489798 22.35273,0 41.02996,16.4986008 43.44348,38.3712138 0.47325,4.30705 -2.65014,8.182617 -6.98029,8.661177 z M 104.19493,81.218455 H 41.096176 c -13.045662,0 -23.662029,10.559728 -23.662029,23.535815 v 47.0716 c 0,12.97608 10.616367,23.53582 23.662029,23.53582 h 63.098754 c 13.04568,0 23.66204,-10.55974 23.66204,-23.53582 v -47.0716 c 0,-12.976087 -10.61636,-23.535815 -23.66204,-23.535815 z"
     id="path2"
     style="stroke-width:7.86629" />
</svg>
