<?xml version="1.0" encoding="UTF-8" standalone="no"?>
<svg
   id="Layer_1"
   data-name="Layer 1"
   viewBox="0 0 511.99999 512"
   version="1.1"
   sodipodi:docname="512.svg"
   width="512"
   height="512"
   inkscape:version="1.2.1 (9c6d41e410, 2022-07-14)"
   xmlns:inkscape="http://www.inkscape.org/namespaces/inkscape"
   xmlns:sodipodi="http://sodipodi.sourceforge.net/DTD/sodipodi-0.dtd"
   xmlns="http://www.w3.org/2000/svg"
   xmlns:svg="http://www.w3.org/2000/svg">
  <defs
     id="defs7" />
  <sodipodi:namedview
     id="namedview5"
     pagecolor="#ffffff"
     bordercolor="#000000"
     borderopacity="0.25"
     inkscape:showpageshadow="2"
     inkscape:pageopacity="0.0"
     inkscape:pagecheckerboard="0"
     inkscape:deskcolor="#d1d1d1"
     showgrid="false"
     inkscape:zoom="1.8078179"
     inkscape:cx="256.93959"
     inkscape:cy="150.45763"
     inkscape:window-width="1920"
     inkscape:window-height="1017"
     inkscape:window-x="-8"
     inkscape:window-y="-8"
     inkscape:window-maximized="1"
     inkscape:current-layer="Layer_1" />
  <path
     d="m 213.67289,320.96276 v 42.42628 c 0,11.73086 -9.49821,21.21314 -21.20135,21.21314 -11.70315,0 -21.20135,-9.48228 -21.20135,-21.21314 v -42.42628 c 0,-11.73086 9.4982,-21.21312 21.20135,-21.21312 11.70314,0 21.20135,9.48226 21.20135,21.21312 z M 491.89808,129.91728 c -11.42753,1.2728 -22.11301,-7.12761 -23.38505,-18.77361 -4.04948,-36.99571 -36.82674,-65.951638 -74.62876,-65.951638 -40.91856,0 -74.20466,33.304622 -74.20466,74.245968 v 61.89993 c 37.39914,16.39776 63.60403,53.79651 63.60403,97.19858 V 405.8153 c 0,58.48462 -47.55462,106.0657 -106.00673,106.0657 H 107.66616 C 49.214076,511.881 1.6594553,464.29992 1.6594553,405.8153 V 278.53651 c 0,-58.48461 47.5546207,-106.06567 106.0067047,-106.06567 H 277.27691 V 119.438 c 0,-64.318222 52.30371,-116.6722368 116.60736,-116.6722368 60.08462,0 110.28939,44.6112208 116.77699,103.7534468 1.27208,11.646 -7.12364,22.1253 -18.76318,23.4193 z M 277.27691,214.89711 H 107.66616 c -35.067003,0 -63.604014,28.55287 -63.604014,63.6394 V 405.8153 c 0,35.08652 28.537011,63.63942 63.604014,63.63942 h 169.61075 c 35.06703,0 63.60403,-28.5529 63.60403,-63.63942 V 278.53651 c 0,-35.08653 -28.537,-63.6394 -63.60403,-63.6394 z"
     id="path2"
     style="stroke-width:21.2072" />
</svg>
